<?xml version="1.0" encoding="UTF-8"?>
<svg version="1.1" xmlns="http://www.w3.org/2000/svg" width="1552" height="500">
<path d="M0 0 C512.16 0 1024.32 0 1552 0 C1552 165 1552 330 1552 500 C1039.84 500 527.68 500 0 500 C0 335 0 170 0 0 Z " fill="#FEFEFE" transform="translate(0,0)"/>
<path d="M0 0 C7.61036379 1.29811056 15.23514305 2.48627757 22.86726379 3.64909363 C37.4755429 5.87654476 52.07658371 8.14711296 66.67195129 10.45768738 C68.13628601 10.68935608 68.13628601 10.68935608 69.63020325 10.92570496 C74.6213421 11.71766336 79.6099597 12.52279509 84.59489441 13.35295105 C86.62318261 13.68923914 88.65302388 14.01612049 90.68293762 14.342453 C103.66783399 16.54944979 116.44855519 20.08233791 128.54695129 25.33268738 C129.34157776 25.67436951 130.13620422 26.01605164 130.95491028 26.36808777 C141.66678258 31.08848125 150.31856717 37.26703152 158.67195129 45.45768738 C159.83210754 46.563703 159.83210754 46.563703 161.01570129 47.69206238 C175.51462749 62.48891171 180.14320538 82.33890517 180.67195129 102.45768738 C181.36288879 102.7077655 182.05382629 102.95784363 182.76570129 103.21549988 C203.40081783 112.03534808 217.90081395 129.27952685 226.67195129 149.45768738 C231.51795819 163.46512337 231.25046125 177.69644735 229.92195129 192.27018738 C229.86031799 193.01421814 229.79868469 193.7582489 229.73518372 194.52482605 C228.25633057 209.16439725 224.02958103 223.24621783 219.24617004 237.09049988 C218.71894835 238.64019417 218.19283075 240.19026446 217.66772461 241.74067688 C216.84476283 244.16988337 216.02106133 246.59881352 215.19387913 249.02658653 C212.39057607 257.25576664 209.66851387 265.51111105 206.95061111 273.76880646 C205.30118954 278.77465179 203.64189089 283.77723108 201.98407173 288.78030014 C200.58550784 293.00237509 199.18984174 297.22536704 197.80012512 301.45036316 C170.2946364 385.03805571 170.2946364 385.03805571 135.79695129 403.14518738 C122.98257788 409.25976241 111.55962522 410.63805262 97.54695129 410.64518738 C96.30429504 410.65743347 95.06163879 410.66967957 93.78132629 410.68229675 C75.2652146 410.71128858 58.3384321 405.79833352 40.89070129 400.08268738 C39.56863304 399.6524429 38.2464866 399.22243862 36.92427063 398.79264832 C33.28761073 397.60883715 29.65299424 396.41886798 26.01893616 395.22709656 C23.60201717 394.43476096 21.18463347 393.64385607 18.76716614 392.85319519 C8.99334617 389.65512104 -0.77447985 386.43936421 -10.53579712 383.20332336 C-15.15758323 381.67128283 -19.78066851 380.14346432 -24.40715027 378.62565613 C-106.73598732 351.60445325 -106.73598732 351.60445325 -125.83586121 317.62956238 C-127.41553206 314.27172801 -128.45288934 310.94772746 -129.51554871 307.39518738 C-132.30788086 298.98108352 -137.72210397 294.92740962 -144.32804871 289.45768738 C-159.77462028 275.21512614 -164.68188548 252.12183464 -165.55070496 232.01237488 C-166.20211475 207.49987544 -161.73616507 183.05076933 -157.83195496 158.94596863 C-157.59534631 157.48309832 -157.35876967 156.02022284 -157.1222229 154.55734253 C-156.62922243 151.50917948 -156.13587229 148.4610733 -155.64225769 145.41300964 C-155.01859508 141.56175628 -154.39576927 137.71036814 -153.77316856 133.85894299 C-152.29639121 124.72438776 -150.81496768 115.59059729 -149.32804871 106.45768738 C-149.16379395 105.44807953 -148.99953918 104.43847168 -148.83030701 103.39826965 C-143.32210535 69.62618954 -136.05941601 33.13770775 -107.65617371 10.74284363 C-76.40715405 -11.5414482 -35.57501959 -6.0779432 0 0 Z " fill="#F5D5C3" transform="translate(206.3280487060547,46.54231262207031)"/>
<path d="M0 0 C14.03396244 3.07518611 28.88595778 17.59347437 36.4453125 29.30859375 C47.69598919 48.78526772 50.27574008 66.59015301 48.25 88.8125 C48.1883667 89.55653076 48.1267334 90.30056152 48.06323242 91.06713867 C46.58437927 105.70670987 42.35762973 119.78853045 37.57421875 133.6328125 C37.04699706 135.1825068 36.52087945 136.73257708 35.99577332 138.2829895 C35.17281154 140.712196 34.34911004 143.14112614 33.52192783 145.56889915 C30.71862478 153.79807927 27.99656257 162.05342368 25.27865982 170.31111908 C23.62923825 175.31696441 21.96993959 180.3195437 20.31212044 185.32261276 C18.91355655 189.54468771 17.51789045 193.76767966 16.12817383 197.99267578 C-11.37731489 281.58036833 -11.37731489 281.58036833 -45.875 299.6875 C-58.68937341 305.80207503 -70.11232607 307.18036524 -84.125 307.1875 C-85.36765625 307.19974609 -86.6103125 307.21199219 -87.890625 307.22460938 C-106.40673669 307.2536012 -123.3335192 302.34064614 -140.78125 296.625 C-142.10331825 296.19475552 -143.42546469 295.76475124 -144.74768066 295.33496094 C-148.38434056 294.15114977 -152.01895705 292.9611806 -155.65301514 291.76940918 C-158.06993413 290.97707358 -160.48731783 290.18616869 -162.90478516 289.39550781 C-172.67860512 286.19743366 -182.44643114 282.98167683 -192.20774841 279.74563599 C-196.82953452 278.21359545 -201.45261981 276.68577695 -206.07910156 275.16796875 C-288.81096624 248.01448791 -288.81096624 248.01448791 -307.5234375 214.00390625 C-313.56857593 201.7057278 -313.56857593 201.7057278 -312 197 C-311.5359375 197.35191406 -311.071875 197.70382812 -310.59375 198.06640625 C-294.50009143 209.56616601 -274.39921397 214.81657 -255.203125 218.30078125 C-254.05335678 218.51133652 -252.90358856 218.72189178 -251.71897888 218.93882751 C-236.03674426 221.76729558 -220.29028955 224.20988536 -204.54742432 226.6729126 C-201.23954635 227.19152299 -197.93234179 227.71435791 -194.62511826 228.23712254 C-185.87408446 229.61999162 -177.12013758 230.98272429 -168.36315918 232.3274231 C-165.55323218 232.75927572 -162.74426511 233.19658233 -159.93615723 233.6401062 C-146.06543019 235.82179232 -132.48285454 237.65964719 -118.42138672 237.46655273 C-116.07060303 237.4368118 -113.72199766 237.44621558 -111.37109375 237.45898438 C-87.87892977 237.42719134 -66.26866403 230.38114091 -49 214 C-26.64342103 189.11040963 -21.01453726 154.36479201 -16.1171875 122.48046875 C-15.7734218 120.28101487 -15.42901658 118.08166086 -15.08401489 115.88240051 C-14.36808289 111.30739354 -13.65762843 106.73158416 -12.95166016 102.1550293 C-12.05794419 96.36222643 -11.15374069 90.57112498 -10.24575615 84.78054333 C-9.53569629 80.24814505 -8.8296333 75.71513126 -8.12485123 71.18190956 C-7.79321233 69.04969159 -7.46079543 66.91759444 -7.12749863 64.78563499 C-5.38485769 53.61569967 -3.74460902 42.43882206 -2.31689453 31.22387695 C-2.1934561 30.26777873 -2.07001766 29.31168051 -1.94283867 28.32660961 C-0.77475578 18.90950978 -0.30410398 9.47965505 0 0 Z " fill="#EA986C" transform="translate(388,150)"/>
<path d="M0 0 C87.62785863 0 87.62785863 0 102.11328125 12.87890625 C110.39929788 21.66172902 114.40205579 32.73308188 114.3125 44.6875 C114.30686035 45.47769531 114.3012207 46.26789063 114.29541016 47.08203125 C114.03430479 59.78054176 110.43144915 70.2126896 101.875 79.75 C97.32292858 84.04804957 91.67583592 86.50232288 86 89 C84.76636719 89.54720703 84.76636719 89.54720703 83.5078125 90.10546875 C77.44470134 92.26816728 71.35736875 92.13384012 65.0078125 92.09765625 C64.16855225 92.09664917 63.32929199 92.09564209 62.46459961 92.09460449 C59.35138569 92.08940127 56.23819137 92.07544014 53.125 92.0625 C46.15375 92.041875 39.1825 92.02125 32 92 C32 108.83 32 125.66 32 143 C21.44 143 10.88 143 0 143 C0 95.81 0 48.62 0 0 Z " fill="#BB6AAC" transform="translate(956,181)"/>
<path d="M0 0 C35.31 0 70.62 0 107 0 C107 8.91 107 17.82 107 27 C81.92 27 56.84 27 31 27 C31 37.23 31 47.46 31 58 C53.77 58 76.54 58 100 58 C100 65.92 100 73.84 100 82 C77.23 82 54.46 82 31 82 C31 93.55 31 105.1 31 117 C56.41 117 81.82 117 108 117 C108 125.58 108 134.16 108 143 C72.36 143 36.72 143 0 143 C0 95.81 0 48.62 0 0 Z " fill="#7073C6" transform="translate(501,181)"/>
<path d="M0 0 C5.7362905 4.64143571 8.53579813 9.18648291 10.45703125 16.3125 C11.02741809 21.94356989 11.01503482 27.54025095 10.99609375 33.1953125 C11.00601988 34.82096671 11.01796834 36.44660969 11.03182983 38.07223511 C11.0640116 42.32701447 11.07456767 46.58153672 11.07867432 50.83642578 C11.08746987 57.65154418 11.1231654 64.46645338 11.17084885 71.28139877 C11.18334254 73.64773345 11.18268447 76.01379682 11.18057251 78.38015747 C11.18715818 79.84344689 11.19416549 81.30673449 11.20166016 82.77001953 C11.20291901 84.03669464 11.20417786 85.30336975 11.20547485 86.60842896 C11.40008182 91.08341764 11.40008182 91.08341764 13.45703125 98.3125 C3.88703125 98.3125 -5.68296875 98.3125 -15.54296875 98.3125 C-16.03796875 93.8575 -16.03796875 93.8575 -16.54296875 89.3125 C-17.07921875 89.75980469 -17.61546875 90.20710938 -18.16796875 90.66796875 C-30.58739966 100.24808897 -45.15246045 103.14890929 -60.54296875 101.3125 C-68.97725494 99.63873367 -77.15604694 96.33361159 -82.10546875 88.99609375 C-83.34600511 86.80048536 -84.47814629 84.59752674 -85.54296875 82.3125 C-85.87296875 81.6525 -86.20296875 80.9925 -86.54296875 80.3125 C-87.43154913 71.46606368 -88.48448657 60.51172088 -83.0859375 52.99609375 C-71.28414343 40.11869313 -55.07431675 38.40233152 -38.49731445 36.48999023 C-32.71118423 35.78003242 -26.80838608 34.95528464 -21.54296875 32.3125 C-18.70858351 28.06092215 -18.90521675 24.30290941 -19.54296875 19.3125 C-21.41088876 15.86403229 -22.63895863 14.68113813 -26.25390625 13.20703125 C-29.80967212 12.23996429 -32.86192162 12.01210871 -36.54296875 12 C-37.71859375 11.98324219 -38.89421875 11.96648437 -40.10546875 11.94921875 C-45.02193782 12.46880014 -48.30905647 14.07858772 -51.79296875 17.5625 C-54.04514063 20.81379395 -54.04514063 20.81379395 -55.54296875 27.3125 C-64.78296875 27.3125 -74.02296875 27.3125 -83.54296875 27.3125 C-83.54296875 18.16079031 -81.67088507 12.1636837 -75.71484375 5.1640625 C-57.77547645 -11.53559243 -20.39238134 -13.53227149 0 0 Z " fill="#CC649B" transform="translate(1169.54296875,225.6875)"/>
<path d="M0 0 C5.7374248 5.5013915 7.76157425 10.84365722 8.09643555 18.79199219 C8.1415858 21.70846633 8.12590067 24.62242635 8.10546875 27.5390625 C8.11352726 29.10932828 8.12405591 30.67958311 8.13691711 32.24981689 C8.16534067 36.36798169 8.16606722 40.48564218 8.15905762 44.60388184 C8.15171322 51.17839371 8.18350473 57.752744 8.22150612 64.32712555 C8.23022595 66.60075479 8.22510834 68.87401684 8.21794128 71.14764404 C8.22133306 72.5733652 8.22508445 73.99908557 8.22924805 75.42480469 C8.22749069 76.64786316 8.22573334 77.87092163 8.22392273 79.13104248 C8.55822257 84.91529445 9.58774522 90.64065646 10.46875 96.3671875 C1.22875 96.3671875 -8.01125 96.3671875 -17.53125 96.3671875 C-18.52125 93.7271875 -19.51125 91.0871875 -20.53125 88.3671875 C-21.05332031 88.75390625 -21.57539062 89.140625 -22.11328125 89.5390625 C-34.81218498 98.52392609 -49.18944156 101.24149045 -64.56640625 98.90625 C-74.25257164 96.59028922 -80.99092656 92.12290983 -86.33984375 83.7109375 C-90.45940665 75.60687934 -91.14659951 66.22478985 -88.7265625 57.44921875 C-85.02357435 49.21326235 -78.89268365 43.54483474 -70.54296875 40.2734375 C-64.28717813 38.10893813 -58.01120789 37.12165291 -51.46875 36.2421875 C-49.24839252 35.92924253 -47.02833405 35.61416806 -44.80859375 35.296875 C-43.75067627 35.14581299 -42.69275879 34.99475098 -41.6027832 34.83911133 C-31.84985908 33.40713875 -31.84985908 33.40713875 -22.53125 30.3671875 C-20.8726641 25.39142979 -20.76806054 20.43228839 -22.59375 15.4921875 C-26.24224663 11.49061055 -29.58902648 10.55633516 -34.8203125 10.046875 C-41.66250845 9.82710425 -48.1015747 9.72338625 -53.53125 14.3671875 C-56.03001313 18.15563482 -56.62676958 20.84478542 -57.53125 25.3671875 C-67.10125 25.3671875 -76.67125 25.3671875 -86.53125 25.3671875 C-85.41281526 15.3012748 -83.21711745 7.93788647 -75.68359375 0.96484375 C-54.84254611 -14.5051898 -21.25494404 -13.71075094 0 0 Z " fill="#8F71C1" transform="translate(712.53125,227.6328125)"/>
<path d="M0 0 C4.8833209 3.32889172 8.61999771 7.00902322 12.125 11.75 C12.57359375 12.33007812 13.0221875 12.91015625 13.484375 13.5078125 C21.7538199 25.29942837 23.125 39.82410678 23.125 53.75 C-1.625 53.75 -26.375 53.75 -51.875 53.75 C-50.22278525 66.23230904 -50.22278525 66.23230904 -42.91015625 75.3125 C-36.12836576 79.75791947 -29.92016174 80.51620588 -21.875 79.75 C-14.84119947 77.92200664 -9.43715848 75.00904585 -5.5925293 68.61816406 C-3.875 66.75 -3.875 66.75 -1.33129883 66.29589844 C-0.34154053 66.3168457 0.64821777 66.33779297 1.66796875 66.359375 C2.74111328 66.37226563 3.81425781 66.38515625 4.91992188 66.3984375 C6.03947266 66.43195313 7.15902344 66.46546875 8.3125 66.5 C9.44365234 66.51804687 10.57480469 66.53609375 11.74023438 66.5546875 C14.53600376 66.60187348 17.33007972 66.66769405 20.125 66.75 C18.80591771 77.21062929 12.4029127 86.55544391 4.359375 93.2109375 C-7.63174114 101.52410625 -23.70262865 102.93479733 -37.875 101.75 C-46.44404166 100.14445151 -53.77019511 96.74222574 -60.875 91.75 C-61.51050781 91.31042969 -62.14601563 90.87085938 -62.80078125 90.41796875 C-71.48914439 83.73313059 -77.45191817 72.32385161 -79.45703125 61.65234375 C-81.59405376 41.70014289 -79.81660135 25.19589155 -67.125 9.0625 C-50.10534041 -9.77910748 -21.32262966 -12.64313319 0 0 Z " fill="#DF5677" transform="translate(1454.875,225.25)"/>
<path d="M0 0 C9.9 0 19.8 0 30 0 C34.49891761 11.24729402 34.49891761 11.24729402 36.18237305 16.35180664 C36.74766975 18.05760643 36.74766975 18.05760643 37.3243866 19.79786682 C37.71620621 20.98992233 38.10802582 22.18197784 38.51171875 23.41015625 C39.14361071 25.31739982 39.77550589 27.22464233 40.40759754 29.13181973 C41.50349018 32.44119098 42.59535095 35.7518918 43.6875 39.0625 C45.00356305 43.05149359 46.32036355 47.04023328 47.64179993 51.02745056 C48.46147768 53.50159401 49.27843399 55.97664098 50.092453 58.45265198 C50.45986099 59.56148239 50.82726898 60.67031281 51.20581055 61.81274414 C51.69068184 63.28306847 51.69068184 63.28306847 52.18534851 64.78309631 C52.80295248 66.9428913 52.80295248 66.9428913 54 68 C54.23137161 67.28082901 54.46274323 66.56165802 54.7011261 65.82069397 C56.89242831 59.00976997 59.08418537 52.19899258 61.27644062 45.38837528 C62.4032093 41.88782112 63.52980823 38.38721253 64.65600586 34.88647461 C65.74489576 31.50172839 66.83424901 28.1171316 67.92391014 24.73263359 C68.53734189 22.82690781 69.15030613 20.92103156 69.76325989 19.01515198 C70.33351143 17.2443351 70.33351143 17.2443351 70.9152832 15.43774414 C71.24615433 14.40960098 71.57702545 13.38145782 71.91792297 12.32215881 C73.2579694 8.20799046 74.63171254 4.10486237 76 0 C85.9 0 95.8 0 106 0 C96.9643391 24.7151901 87.85583907 49.40321292 78.68652344 74.06913757 C76.37998699 80.27549907 74.0830874 86.48523228 71.79920959 92.69996643 C70.53914941 96.12247551 69.26971812 99.5414484 67.99746704 102.95944214 C67.42498383 104.50343872 66.85646646 106.04891277 66.29232788 107.59597778 C57.87051852 130.67236892 57.87051852 130.67236892 46.78662109 136.07983398 C38.87779483 139.27709882 31.76656025 139.47789587 23.3125 139.25 C22.02666016 139.23195313 20.74082031 139.21390625 19.41601562 139.1953125 C16.27701563 139.14863592 13.13840475 139.07691121 10 139 C10 131.08 10 123.16 10 115 C19.6875 115.3125 19.6875 115.3125 22.71362305 115.45043945 C27.26728002 115.5215545 29.34549194 115.49523614 33.08203125 112.66796875 C36.41277248 108.03477881 36.6432372 103.53858194 36 98 C34.76743424 93.48293693 33.10820342 89.15558005 31.42578125 84.7890625 C30.94366394 83.50623122 30.46287914 82.22289846 29.9833374 80.93910217 C28.70582536 77.52961933 27.41076667 74.12706151 26.11220169 70.72555161 C24.77734814 67.21933321 23.45947655 63.70675023 22.14038086 60.19458008 C20.05899907 54.65786205 17.96949349 49.12429225 15.87304688 43.59326172 C12.50622427 34.708272 9.18563186 25.80638398 5.88290405 16.8973999 C5.07688934 14.72626018 4.26711146 12.55655892 3.45629883 10.38720703 C2.98254456 9.11622587 2.50882746 7.84523086 2.03515625 6.57421875 C1.6369165 5.50776123 1.23867676 4.44130371 0.82836914 3.3425293 C0 1 0 1 0 0 Z " fill="#B16BB2" transform="translate(838,221)"/>
<path d="M0 0 C6.15574827 5.03855258 10.03060699 11.14842802 12.15234375 18.76171875 C12.15234375 20.74171875 12.15234375 22.72171875 12.15234375 24.76171875 C3.24234375 24.76171875 -5.66765625 24.76171875 -14.84765625 24.76171875 C-15.50765625 22.45171875 -16.16765625 20.14171875 -16.84765625 17.76171875 C-22.10025781 12.20896853 -28.14067918 11.63482377 -35.41015625 11.38671875 C-41.55454163 11.46449578 -44.51261243 12.42667493 -48.84765625 16.76171875 C-48.98333944 20.42516486 -49.01227051 23.26787596 -47.84765625 26.76171875 C-45.77846299 27.89518461 -45.77846299 27.89518461 -42.84765625 28.76171875 C-42.2134375 28.97570312 -41.57921875 29.1896875 -40.92578125 29.41015625 C-36.1754231 30.93354697 -31.40747184 32.08518723 -26.52758789 33.09375 C-12.48878058 36.0201744 3.06556263 39.38304512 12.08984375 51.44921875 C16.41622685 58.39765222 15.90733502 66.5456324 14.52734375 74.44921875 C12.44657378 82.48128186 6.95992458 89.17644736 0.15234375 93.76171875 C-14.61476145 102.44477661 -35.0449722 103.09870437 -51.41015625 99.19921875 C-61.10945749 96.59767092 -70.41696078 91.45781633 -75.84765625 82.76171875 C-79.25643946 76.24335587 -79.84765625 72.43084085 -79.84765625 64.76171875 C-71.26765625 64.76171875 -62.68765625 64.76171875 -53.84765625 64.76171875 C-52.52765625 68.06171875 -51.20765625 71.36171875 -49.84765625 74.76171875 C-42.28153405 80.46541087 -36.23409418 81.42792981 -26.84765625 80.76171875 C-21.89357578 79.67676715 -18.07596412 77.76482051 -14.84765625 73.76171875 C-13.4033477 70.87310166 -13.47077119 68.96524174 -13.84765625 65.76171875 C-17.41085848 61.409665 -20.56054748 59.81072646 -25.91015625 58.26171875 C-26.59625977 58.05869141 -27.28236328 57.85566406 -27.98925781 57.64648438 C-32.79528315 56.25374409 -37.64564622 55.06144218 -42.50878906 53.88696289 C-68.53437938 47.60145395 -68.53437938 47.60145395 -76 36.5859375 C-78.2222822 32.55082462 -78.50521625 28.99514193 -78.41015625 24.44921875 C-78.39263306 23.32882202 -78.39263306 23.32882202 -78.37475586 22.18579102 C-78.02335652 13.35293293 -75.01703033 7.56808791 -68.72265625 1.38671875 C-63.8912109 -2.60063049 -58.83926733 -4.59160718 -52.84765625 -6.23828125 C-51.63335938 -6.5940625 -50.4190625 -6.94984375 -49.16796875 -7.31640625 C-33.37489071 -11.18053155 -13.6256839 -9.00065975 0 0 Z " fill="#9F6FBA" transform="translate(817.84765625,226.23828125)"/>
<path d="M0 0 C1.13890688 1.00356593 2.24578265 2.04501502 3.3125 3.125 C3.87195312 3.65996094 4.43140625 4.19492188 5.0078125 4.74609375 C10.77670239 10.77973946 12.3125 16.897547 12.3125 25.125 C3.4025 25.125 -5.5075 25.125 -14.6875 25.125 C-15.3475 22.815 -16.0075 20.505 -16.6875 18.125 C-19.47236876 14.51697942 -23.34228958 13.11684151 -27.6875 12.125 C-34.55306316 11.49705215 -40.8683286 11.08390875 -46.6875 15.125 C-48.24673778 16.68423778 -48.04435611 18.21352723 -48.1875 20.375 C-48.2596875 21.14328125 -48.331875 21.9115625 -48.40625 22.703125 C-47.40718615 26.06953579 -45.61070825 27.17218486 -42.72460938 29.04931641 C-39.48968152 30.75750098 -36.25963151 31.50045589 -32.6875 32.1875 C-31.18449961 32.50987697 -29.68190145 32.83413427 -28.1796875 33.16015625 C-27.05385254 33.39822998 -27.05385254 33.39822998 -25.90527344 33.64111328 C-20.10655194 34.90631209 -14.39323547 36.49571717 -8.6875 38.125 C-7.68847656 38.39699219 -6.68945312 38.66898437 -5.66015625 38.94921875 C2.67369261 41.53236124 9.33646726 46.46166299 14.0625 53.8671875 C15.64206216 57.98392138 15.84917976 61.50002186 15.8125 65.875 C15.80605469 66.67341309 15.79960938 67.47182617 15.79296875 68.29443359 C15.51586302 77.25843921 12.55380121 82.9566409 6.5 89.5 C2.70045799 93.00402207 -0.83304648 95.36260521 -5.6875 97.125 C-6.69941406 97.49625 -7.71132812 97.8675 -8.75390625 98.25 C-26.20414884 103.76665188 -46.12980354 103.12259823 -62.625 94.875 C-71.80320715 89.19490199 -76.34376339 82.15620984 -79.6875 72.125 C-79.6875 69.815 -79.6875 67.505 -79.6875 65.125 C-70.7775 65.125 -61.8675 65.125 -52.6875 65.125 C-51.6975 68.095 -50.7075 71.065 -49.6875 74.125 C-44.49746908 79.42785768 -39.78912191 81.4112123 -32.4375 81.5 C-26.463423 81.39840005 -21.66357036 80.54256958 -16.6875 77.125 C-14.29165416 74.36614721 -13.7841799 72.7050794 -13.1875 69.125 C-13.87750007 64.98499957 -15.49574572 63.81279308 -18.6875 61.125 C-21.270859 59.82901968 -23.92772281 58.96957655 -26.6875 58.125 C-27.46351562 57.87500244 -28.23953125 57.62500488 -29.0390625 57.36743164 C-35.18572209 55.44477115 -41.40824896 53.97866198 -47.6875 52.5625 C-59.98613172 49.76081278 -69.62854305 46.12141583 -76.625 35.0625 C-79.46700082 27.04014324 -78.66299406 18.22128136 -75.125 10.625 C-69.78337129 1.27093856 -62.01599545 -3.47080244 -51.71777344 -6.44360352 C-35.45999604 -10.47910656 -14.15936414 -9.90090876 0 0 Z " fill="#D65F8F" transform="translate(1276.6875,225.875)"/>
<path d="M0 0 C8.29703446 5.72319525 14.42428572 13.15398897 17.77734375 22.6484375 C18.18984375 23.7209375 18.60234375 24.7934375 19.02734375 25.8984375 C21.55749129 38.54917518 19.6240695 50.7437743 12.77734375 61.6484375 C5.04789931 71.99000644 -4.35778441 78.6055904 -17.22265625 80.6484375 C-30.53210309 81.90492374 -42.11837048 79.31780968 -52.71484375 70.9765625 C-62.16183218 62.20646109 -67.19968062 52.15818887 -67.74194336 39.35253906 C-67.94341102 27.03683251 -65.34791301 17.35274805 -57.29296875 7.74609375 C-41.51889999 -8.23631177 -19.29458898 -11.73273776 0 0 Z " fill="#EA986C" transform="translate(195.22265625,113.3515625)"/>
<path d="M0 0 C9.24 0 18.48 0 28 0 C28 10.23 28 20.46 28 31 C34.93 31 41.86 31 49 31 C49 37.27 49 43.54 49 50 C42.07 50 35.14 50 28 50 C28.11827046 57.88380994 28.24252095 65.76749438 28.37231445 73.65112305 C28.41614094 76.33306042 28.45769628 79.01501872 28.49731445 81.69702148 C28.55510707 85.55200307 28.61877607 89.40684967 28.68359375 93.26171875 C28.70030624 94.46084396 28.71701874 95.65996918 28.73423767 96.89543152 C28.7641555 98.5766082 28.7641555 98.5766082 28.79467773 100.29174805 C28.81799416 101.76734444 28.81799416 101.76734444 28.84178162 103.27275085 C28.99629508 105.93613732 29.40938182 108.40164631 30 111 C33.76300374 112.25433458 37.27210909 112.10695422 41.1875 112.0625 C41.93708984 112.05798828 42.68667969 112.05347656 43.45898438 112.04882812 C45.30602383 112.03706354 47.15302213 112.01912865 49 112 C49.02887512 115.64581687 49.04675585 119.29160463 49.0625 122.9375 C49.07087891 123.97841797 49.07925781 125.01933594 49.08789062 126.09179688 C49.09111328 127.08115234 49.09433594 128.07050781 49.09765625 129.08984375 C49.10289307 130.00628662 49.10812988 130.92272949 49.11352539 131.86694336 C49 134 49 134 48 135 C44.01316655 135.24400131 40.02248351 135.22861641 36.02880859 135.24023438 C34.03601031 135.24982667 32.04335311 135.28096573 30.05078125 135.3125 C20.0056287 135.35312751 12.3965637 134.44791085 4.5078125 127.98828125 C-1.25573261 120.38816607 -0.39170399 111.38139498 -0.29296875 102.34375 C-0.2873649 100.8306114 -0.28309854 99.31746731 -0.28010559 97.80432129 C-0.26871877 93.84554693 -0.23930579 89.88710926 -0.20599365 85.9284668 C-0.17515886 81.87944084 -0.16157176 77.83035983 -0.14648438 73.78125 C-0.11442915 65.85399588 -0.06171273 57.92707877 0 50 C-5.94 50 -11.88 50 -18 50 C-18 43.73 -18 37.46 -18 31 C-12.06 31 -6.12 31 0 31 C0 20.77 0 10.54 0 0 Z " fill="#DA5B85" transform="translate(1317,190)"/>
<path d="M0 0 C5.094375 -0.04125 10.18875 -0.0825 15.4375 -0.125 C17.82053345 -0.15231201 17.82053345 -0.15231201 20.25170898 -0.18017578 C39.33770171 -0.25483863 39.33770171 -0.25483863 46.4921875 5.46875 C50.80211068 9.84566681 52.2356284 14.42702928 52.4375 20.5 C52.17969659 26.3247457 51.41830196 31.31896893 47.41796875 35.75390625 C40.1026807 42.36794664 32.41307395 43.13911191 22.75390625 43.09765625 C21.5532251 43.09515869 20.35254395 43.09266113 19.11547852 43.09008789 C17.61299561 43.08098389 16.1105127 43.07187988 14.5625 43.0625 C7.3540625 43.0315625 7.3540625 43.0315625 0 43 C0 28.81 0 14.62 0 0 Z " fill="#FEFDFE" transform="translate(988,206)"/>
<path d="M0 0 C0.83118691 21.403063 0.83118691 21.403063 -5.35546875 28.5703125 C-11.51258002 34.34776276 -18.9825553 34.38611564 -26.96484375 34.2578125 C-31.53081975 33.86996898 -34.34798674 32.36718339 -37.8125 29.5 C-40.46020373 26.15553213 -40.34218722 22.34998449 -40.26953125 18.28125 C-39.83253926 14.5826511 -38.51537087 12.70402369 -36 10 C-30.47981276 6.4005132 -24.95375698 5.20925746 -18.5 4.4375 C-12.65556968 3.71046413 -5.46555869 0 0 0 Z " fill="#FEFCFD" transform="translate(1151,274)"/>
<path d="M0 0 C0.73374987 20.38194095 0.73374987 20.38194095 -5.375 27.9375 C-13.52864624 34.34393633 -20.74858978 34.85136854 -31 34 C-34.52260327 32.89453263 -37.11080907 31.40206898 -39.14453125 28.1953125 C-40.81655225 23.90455542 -40.60237645 19.51127577 -40 15 C-37.04973928 9.40467794 -33.13704259 7.74042808 -27.23828125 5.80078125 C-22.36857777 4.59657231 -17.45905013 4.06723197 -12.48046875 3.50390625 C-8.529727 2.93191334 -3.73715725 0 0 0 Z " fill="#FDFCFE" transform="translate(692,274)"/>
<path d="M0 0 C0.6811084 -0.00644531 1.3622168 -0.01289063 2.06396484 -0.01953125 C7.51578835 0.11845601 11.52680608 1.47922309 15.66796875 5.04296875 C19.80416084 9.92066306 22.875 14.8871426 22.875 21.5 C7.695 21.5 -7.485 21.5 -23.125 21.5 C-21.99558898 12.46471182 -19.81315692 8.05969114 -12.75 2.5 C-8.69615631 0.17453928 -4.57545569 0.04164237 0 0 Z " fill="#FEFDFD" transform="translate(1426.125,239.5)"/>
</svg>
